<?xml version="1.0" standalone="no"?><svg xmlns="http://www.w3.org/2000/svg" viewBox="0 0 1440 320"><path fill="#3A3053" fill-opacity="1" d="M0,256L30,256C60,256,120,256,180,234.7C240,213,300,171,360,181.3C420,192,480,256,540,282.7C600,309,660,299,720,277.3C780,256,840,224,900,202.7C960,181,1020,171,1080,165.3C1140,160,1200,160,1260,144C1320,128,1380,96,1410,80L1440,64L1440,320L1410,320C1380,320,1320,320,1260,320C1200,320,1140,320,1080,320C1020,320,960,320,900,320C840,320,780,320,720,320C660,320,600,320,540,320C480,320,420,320,360,320C300,320,240,320,180,320C120,320,60,320,30,320L0,320Z"></path></svg>